<svg xmlns="http://www.w3.org/2000/svg" width="16.725" height="20" viewBox="0 0 16.725 20">
  <defs>
    <style>
      .cls-1 {
        fill: #cb86c9;
        fill-rule: evenodd;
      }
    </style>
  </defs>
  <path id="Lock" class="cls-1" d="M11.872,2a5.3,5.3,0,0,1,5.3,5.083l0,.218V8.877a4.544,4.544,0,0,1,3.052,4.292v4.289A4.542,4.542,0,0,1,15.683,22H8.042A4.542,4.542,0,0,1,3.5,17.458V13.168A4.543,4.543,0,0,1,6.552,8.876v-1.6A5.3,5.3,0,0,1,11.872,2Zm3.8,5.3V8.627H8.052V7.281l.006-.2a3.811,3.811,0,0,1,7.615.215Zm.01,2.826H8.042A3.042,3.042,0,0,0,5,13.168v4.289A3.042,3.042,0,0,0,8.042,20.5h7.641a3.042,3.042,0,0,0,3.042-3.042V13.168A3.042,3.042,0,0,0,15.683,10.127ZM12.606,14.1a.75.75,0,0,0-1.493.1v2.221l.007.1a.75.75,0,0,0,1.493-.1V14.2Z" transform="translate(-3.5 -2)"/>
</svg>
