<svg xmlns="http://www.w3.org/2000/svg" width="16" height="20.248" viewBox="0 0 16 20.248">
  <defs>
    <style>
      .cls-1 {
        fill: #cb86c9;
        fill-rule: evenodd;
      }
    </style>
  </defs>
  <path id="Profile" class="cls-1" d="M12,2A5.357,5.357,0,0,0,6.692,7.4a5.313,5.313,0,1,0,10.625,0A5.357,5.357,0,0,0,12,2Zm0,1.466A3.936,3.936,0,1,1,8.133,7.4,3.9,3.9,0,0,1,12,3.466ZM9.83,14.98a16.528,16.528,0,0,0-2.339.335,4.34,4.34,0,0,0-3.2,1.972A2.948,2.948,0,0,0,4,18.566a3,3,0,0,0,.281,1.268,3.986,3.986,0,0,0,2.976,1.925l.256.054a15.192,15.192,0,0,0,2.332.343,2.245,2.245,0,0,0,.4.048l.144.005c.074,0,.158,0,.284,0a24.811,24.811,0,0,0,3.491-.056,15.477,15.477,0,0,0,1.88-.248l.467-.1c1.542-.308,2.7-.894,3.2-1.974a3,3,0,0,0,0-2.535c-.5-1.078-1.645-1.659-3.215-1.986a16.734,16.734,0,0,0-1.873-.295l-.461-.039A24.383,24.383,0,0,0,9.83,14.98Zm4.214,1.46h.013a15.347,15.347,0,0,1,2.153.308c1.166.243,1.958.647,2.208,1.181a1.507,1.507,0,0,1,0,1.275,2.791,2.791,0,0,1-1.972,1.121l-.225.048a14.261,14.261,0,0,1-2.162.319,23.767,23.767,0,0,1-3.343.053l-.394-.007a1.917,1.917,0,0,1-.287-.034,15.344,15.344,0,0,1-1.874-.252l-.353-.076c-1.17-.232-1.969-.637-2.228-1.179a1.508,1.508,0,0,1-.139-.636,1.456,1.456,0,0,1,.14-.631,3.222,3.222,0,0,1,2.2-1.183,15.213,15.213,0,0,1,2.157-.309A23.019,23.019,0,0,1,14.044,16.44Z" transform="translate(-4 -2)"/>
</svg>
